<svg width="239" height="80" viewBox="0 0 239 80" fill="none" xmlns="http://www.w3.org/2000/svg">
<g clip-path="url(#clip0_108_30)">
<path d="M195.245 -4.35263e-05C196.918 0.906513 198.322 1.9869 198.964 3.84546C199.179 5.14587 199.251 6.38444 199.276 7.70264C199.287 8.2289 199.298 8.75515 199.31 9.29734C199.319 9.86094 199.328 10.4245 199.338 11.0052C199.35 11.5857 199.361 12.1661 199.373 12.7641C199.41 14.6166 199.443 16.4691 199.476 18.3216C199.5 19.5782 199.524 20.8348 199.549 22.0913C199.609 25.1704 199.666 28.2495 199.72 31.3286C200.066 31.1727 200.411 31.0168 200.767 30.8561C201.22 30.6528 201.673 30.4494 202.14 30.2399C202.589 30.0378 203.039 29.8358 203.501 29.6275C209.502 27.0592 216.469 27.5788 222.518 29.6853C228.742 32.3398 234.067 37.0078 236.66 43.3719C238.117 47.4547 238.66 51.0274 238.639 55.3474C238.642 55.9522 238.646 56.5569 238.649 57.18C238.653 58.445 238.651 59.71 238.644 60.975C238.636 62.9112 238.656 64.846 238.677 66.7821C238.677 68.0172 238.676 69.2522 238.674 70.4873C238.681 71.0636 238.688 71.64 238.696 72.2338C238.644 76.2163 238.644 76.2163 237.002 78.3917C235.255 79.6316 234.312 80 232.168 80C230.102 79.3698 228.711 78.8687 227.309 77.1988C226.258 74.8065 226.359 72.6478 226.386 70.0633C226.379 68.9761 226.371 67.8889 226.364 66.8018C226.362 65.0992 226.364 63.3968 226.372 61.6943C226.641 52.2584 226.641 52.2584 222.226 44.2503C219.358 41.4999 216.576 40.7867 212.657 40.6293C208.864 40.7137 206.413 41.5049 203.652 44.1236C200.161 47.9154 199.559 50.8452 199.548 55.8894C199.534 56.9868 199.519 58.0842 199.505 59.1816C199.489 60.9039 199.476 62.6262 199.465 64.3486C199.453 66.0162 199.431 67.6834 199.408 69.3509C199.408 69.8633 199.408 70.3756 199.408 70.9034C199.363 73.7781 199.132 75.8576 197.483 78.3216C195.283 79.7019 193.711 80.2008 191.189 79.6853C189.71 79.222 189.127 78.9169 188.007 77.7972C186.993 75.8292 186.782 74.2861 186.775 72.1059C186.771 71.5146 186.768 70.9232 186.765 70.3139C186.764 69.6652 186.764 69.0165 186.763 68.3481C186.76 67.6649 186.758 66.9816 186.755 66.2776C186.748 64.4027 186.744 62.5279 186.741 60.6531C186.74 59.4815 186.737 58.31 186.735 57.1385C186.727 53.4725 186.722 49.8065 186.72 46.1405C186.717 41.9096 186.707 37.6788 186.691 33.4479C186.679 30.1768 186.673 26.9056 186.673 23.6344C186.672 21.681 186.669 19.7277 186.659 17.7743C186.648 15.5952 186.65 13.4162 186.654 11.2371C186.649 10.5907 186.643 9.94425 186.638 9.27822C186.641 8.68369 186.644 8.08916 186.648 7.47662C186.647 6.96156 186.646 6.44651 186.645 5.91584C186.961 3.7327 187.992 2.25738 189.476 0.664292C191.392 -0.32004 193.169 -0.430307 195.245 -4.35263e-05Z" fill="white"/>
<path d="M90.317 27.8584C91.0604 27.8537 91.0604 27.8537 91.8188 27.8488C92.8612 27.8435 93.9035 27.8398 94.9459 27.8377C96.5357 27.8322 98.1252 27.8148 99.7149 27.7973C100.731 27.7936 101.748 27.7907 102.765 27.7885C103.237 27.7816 103.709 27.7747 104.195 27.7676C106.966 27.778 108.996 27.9905 111.329 29.6504C112.92 32.2222 113.219 34.1872 113.224 37.1865C113.227 37.5908 113.23 37.9951 113.233 38.4117C113.241 39.7397 113.236 41.0672 113.23 42.3952C113.231 43.323 113.233 44.2509 113.235 45.1788C113.237 47.12 113.234 49.0611 113.226 51.0023C113.216 53.4854 113.222 55.9682 113.232 58.4514C113.238 60.3664 113.236 62.2813 113.232 64.1963C113.231 65.1116 113.232 66.027 113.236 66.9423C113.24 68.2236 113.234 69.5044 113.224 70.7857C113.223 71.5135 113.222 72.2413 113.22 72.9911C112.987 75.1484 112.483 76.4932 111.329 78.3217C108.425 80.0286 105.932 80.2436 102.616 80.2033C101.94 80.2037 101.94 80.2037 101.251 80.2041C100.302 80.2028 99.3525 80.1974 98.4033 80.1881C96.9719 80.175 95.541 80.1766 94.1096 80.1803C84.4224 80.164 75.6769 79.1624 68.2824 72.2728C62.6431 66.2184 61.189 59.3396 61.3681 51.3222C61.6939 44.5211 64.7786 39.2834 69.5302 34.5236C75.5736 29.2763 82.538 27.8977 90.317 27.8584ZM77.5919 43.5774C74.5173 47.3326 72.9012 50.5307 73.0573 55.4721C73.6469 59.5596 75.7127 62.7161 78.8594 65.3125C81.9379 67.2057 84.3507 67.9029 87.9699 67.8563C88.9775 67.85 88.9775 67.85 90.0054 67.8436C91.2662 67.8206 91.2662 67.8206 92.5525 67.7973C95.241 67.7626 97.9295 67.728 100.699 67.6924C100.699 58.6462 100.699 49.6 100.699 40.2798C98.034 40.2336 95.3686 40.1875 92.6225 40.1399C91.7921 40.1195 90.9617 40.0992 90.1062 40.0782C85.1792 40.037 81.4647 40.3938 77.5919 43.5774Z" fill="white"/>
<path d="M8.95111 28.5315C10.4636 29.6535 11.5652 30.5406 12.0047 32.4325C12.1074 33.7761 12.1208 35.0949 12.1045 36.4423C12.1103 36.9355 12.1161 37.4288 12.1221 37.9369C12.1387 39.5106 12.1368 41.0836 12.1329 42.6574C12.1379 44.2229 12.147 45.7883 12.1617 47.3538C12.17 48.3258 12.1723 49.2979 12.1674 50.2699C12.1912 55.3881 12.8362 59.7879 16.5626 63.5686C19.8949 66.6214 22.9878 67.4444 27.4804 67.3405C31.2903 66.8494 34.2651 65.1331 36.6434 62.1329C39.1171 58.631 39.3236 55.1541 39.3335 51.0118C39.3476 49.9392 39.3618 48.8666 39.3762 47.7939C39.3923 46.1133 39.4057 44.4327 39.4162 42.752C39.4283 41.1228 39.4503 39.494 39.4734 37.865C39.4735 37.3637 39.4735 36.8625 39.4736 36.3461C39.5161 33.6658 39.6328 31.8111 41.3987 29.6504C43.3114 28.3462 44.4255 27.972 46.7483 27.972C49.173 28.6774 49.9576 29.2957 51.4686 31.3287C51.8796 33.3871 51.8473 35.4111 51.8204 37.5044C51.8218 38.1067 51.8231 38.709 51.8245 39.3296C51.824 40.6039 51.8165 41.8783 51.8025 43.1526C51.7835 45.0866 51.7909 47.0192 51.8018 48.9533C51.798 50.1952 51.7926 51.4372 51.7855 52.6792C51.7896 53.5362 51.7896 53.5362 51.7939 54.4105C51.6825 61.3306 48.9829 68.042 43.9751 72.9109C37.9099 77.9419 31.3317 80.3408 23.3982 79.9017C16.2119 79.0497 10.4372 75.8502 5.59446 70.4895C1.26771 64.5894 -0.074978 58.6676 -0.133246 51.4686C-0.137762 50.9349 -0.142277 50.4012 -0.14693 49.8514C-0.154641 48.7267 -0.160654 47.602 -0.16507 46.4773C-0.171535 45.3292 -0.183008 44.1812 -0.199488 43.0332C-0.223353 41.3694 -0.232405 39.706 -0.238141 38.042C-0.247936 37.5314 -0.257731 37.0208 -0.267822 36.4948C-0.256945 33.2932 0.131858 31.5419 2.23782 29.0909C4.52924 27.6665 6.38718 27.8447 8.95111 28.5315Z" fill="white"/>
<path d="M135.21 29.9055C137.006 32.2034 136.873 34.465 136.82 37.2814C136.824 37.7974 136.827 38.3133 136.83 38.8449C136.839 40.4889 136.83 42.1322 136.818 43.7762C136.809 45.4122 136.804 47.0476 136.812 48.6836C136.818 49.6986 136.813 50.7137 136.796 51.7286C136.814 55.9917 138.088 59.4393 140.21 63.1119C143.193 65.8595 146.425 67.2992 150.489 67.4825C154.432 67.2899 157.666 66.0952 160.494 63.2911C163.706 59.3035 164.072 55.3694 164.049 50.4174C164.058 49.3491 164.067 48.2809 164.077 47.2126C164.086 45.543 164.091 43.8736 164.087 42.204C164.085 40.5825 164.101 38.9618 164.119 37.3404C164.114 36.8439 164.108 36.3473 164.102 35.8356C164.139 33.4541 164.275 31.816 165.774 29.904C167.634 28.2007 168.687 27.972 171.189 27.972C172.972 28.3866 173.822 28.9404 175.167 30.177C176.694 32.6504 176.545 34.8031 176.521 37.6573C176.524 38.5009 176.524 38.5009 176.527 39.3616C176.529 40.5522 176.525 41.7429 176.516 42.9335C176.504 44.7336 176.515 46.5325 176.53 48.3326C176.541 56.6163 176.074 63.8109 170.629 70.4895C170.321 70.8739 170.012 71.2582 169.694 71.6543C165.049 76.8451 158.791 79.3279 151.976 79.9475C144.434 80.1409 137.562 77.7889 132.028 72.5524C126.528 66.5108 124.495 60.0356 124.493 51.9471C124.489 51.3801 124.484 50.8132 124.48 50.2291C124.474 49.0421 124.472 47.8551 124.475 46.6681C124.476 44.8546 124.452 43.0425 124.427 41.2292C124.425 40.0699 124.423 38.9106 124.423 37.7513C124.414 37.2128 124.405 36.6743 124.395 36.1194C124.421 33.6106 124.494 31.8718 126.109 29.8761C128.914 27.2627 132.287 27.234 135.21 29.9055Z" fill="white"/>
</g>
<defs>
<clipPath id="clip0_108_30">
<rect width="238.322" height="80" fill="white"/>
</clipPath>
</defs>
</svg>
