<?xml version="1.0" encoding="UTF-8"?>
<svg version="1.1" xmlns="http://www.w3.org/2000/svg" width="426" height="142">
<path d="M0 0 C2.75569447 2.18159145 4.43588747 3.87177494 6 7 C6.11840113 8.57206643 6.17703033 10.14883269 6.20532227 11.72509766 C6.22526749 12.70596344 6.24521271 13.68682922 6.26576233 14.69741821 C6.28247482 15.75891083 6.29918732 16.82040344 6.31640625 17.9140625 C6.33718735 18.99883881 6.35796844 20.08361511 6.37937927 21.20126343 C6.44490634 24.67577621 6.50377447 28.15036624 6.5625 31.625 C6.60568221 33.97657058 6.6492964 36.32813326 6.69335938 38.6796875 C6.80059093 44.4530427 6.90235144 50.2264752 7 56 C7.59893066 55.72575195 8.19786133 55.45150391 8.81494141 55.16894531 C10.00869385 54.62898926 10.00869385 54.62898926 11.2265625 54.078125 C12.01111816 53.72137695 12.79567383 53.36462891 13.60400391 52.99707031 C24.79782053 48.33887314 36.6982523 49.08956567 48 53 C60.47794473 58.26809033 67.73056617 66.40711388 73.58984375 78.375 C76.51335584 85.89028871 77.30913222 93.05410407 77.30078125 101.07421875 C77.30506638 102.00168411 77.3093515 102.92914948 77.31376648 103.88471985 C77.31947093 105.83012073 77.32003898 107.77554292 77.31567383 109.72094727 C77.31249734 112.68998385 77.3360785 115.65803813 77.36132812 118.62695312 C77.36359994 120.52604042 77.36430516 122.42513037 77.36328125 124.32421875 C77.372491 125.20559006 77.38170074 126.08696136 77.39118958 126.99504089 C77.35322025 132.06300918 76.87896479 135.64165515 74 140 C69.7659782 142.8226812 65.97182497 142.785025 61 142 C57.37642871 139.33778436 55.80403247 137.35150697 55 133 C54.91402201 131.58776623 54.87492768 130.17217248 54.87402344 128.75732422 C54.87021667 127.92901093 54.86640991 127.10069763 54.86248779 126.24728394 C54.86146057 125.35872711 54.86043335 124.47017029 54.859375 123.5546875 C54.84103813 121.65363394 54.82146701 119.75259195 54.80078125 117.8515625 C54.77191086 114.86959363 54.7500022 111.88836736 54.74951172 108.90625 C55.24022147 93.54825678 55.24022147 93.54825678 49 80 C46.8033169 77.71439875 46.8033169 77.71439875 44.375 76.4375 C43.61960937 75.98246094 42.86421875 75.52742188 42.0859375 75.05859375 C35.94529307 71.9422742 28.17717481 71.88159513 21.578125 73.6484375 C14.81850549 76.71384635 10.48505684 82.13036967 7.64579773 88.89051819 C6.42092137 92.89154558 6.60073616 96.94647144 6.62890625 101.09765625 C6.61153203 103.0527362 6.59394757 105.00781429 6.57617188 106.96289062 C6.56608844 110.01964659 6.56250767 113.07628469 6.56420898 116.13305664 C6.56063485 119.10077542 6.53328833 122.06759746 6.50390625 125.03515625 C6.51208878 125.94467545 6.5202713 126.85419464 6.52870178 127.79127502 C6.46211305 133.4834589 5.7428262 136.63824347 2 141 C-1.45739557 142.72869779 -5.21975568 142.48966895 -9 142 C-11.87029869 140.20606332 -13.49131638 139.01736724 -15 136 C-15.10155317 134.28825253 -15.13946009 132.57257378 -15.14717102 130.85783386 C-15.15432632 129.76847031 -15.16148163 128.67910675 -15.16885376 127.55673218 C-15.17288712 125.75590683 -15.17288712 125.75590683 -15.17700195 123.91870117 C-15.18357315 122.65847641 -15.19014435 121.39825165 -15.19691467 120.09983826 C-15.21432802 116.63692786 -15.22487734 113.17403127 -15.2331202 109.71108794 C-15.23826971 107.54781527 -15.24434547 105.38454688 -15.25063133 103.22127724 C-15.26968445 96.45363886 -15.28391526 89.6860114 -15.2922433 82.91835135 C-15.30201689 75.10485361 -15.32833877 67.29163908 -15.36874419 59.47824115 C-15.39889897 53.43995363 -15.41371155 47.40174733 -15.41702431 41.36338598 C-15.41937557 37.75645948 -15.42834519 34.14983549 -15.45348549 30.54298973 C-15.48108473 26.51830579 -15.47693711 22.49425494 -15.4699707 18.46948242 C-15.48278076 17.27500488 -15.49559082 16.08052734 -15.50878906 14.84985352 C-15.45770325 6.77314645 -15.45770325 6.77314645 -13.09562683 2.78315735 C-9.08758406 -0.62726421 -5.10952873 -0.81187676 0 0 Z " fill="#121F48" transform="translate(349,0)"/>
<path d="M0 0 C1.40112282 -0.00855011 1.40112282 -0.00855011 2.83055115 -0.01727295 C4.79807412 -0.0266863 6.7656126 -0.03324229 8.7331543 -0.03710938 C11.73969786 -0.04685427 14.74556856 -0.07792798 17.75195312 -0.109375 C19.66796471 -0.11590216 21.58398116 -0.12115376 23.5 -0.125 C24.39594376 -0.1373468 25.29188751 -0.1496936 26.21498108 -0.16241455 C31.0204406 -0.14526935 34.33335976 0.00520525 38.18359375 3.203125 C41.62230177 6.70881469 41.61189371 10.06677561 41.57177734 14.73803711 C41.5770343 15.49136826 41.58229126 16.2446994 41.58770752 17.02085876 C41.60089588 19.50760725 41.59217297 21.99371391 41.58203125 24.48046875 C41.58405254 26.21155419 41.58696444 27.94263879 41.59072876 29.67372131 C41.5951507 33.30103669 41.58872608 36.92813034 41.57470703 40.55541992 C41.55762793 45.20042829 41.56744893 49.84491614 41.58542442 54.48990536 C41.59627671 58.06474208 41.59280908 61.63945587 41.58504105 65.21429634 C41.58304237 66.92668278 41.58548664 68.63908045 41.59247971 70.35145378 C41.60011664 72.74754158 41.58845869 75.14279271 41.57177734 77.53881836 C41.57785004 78.24391541 41.58392273 78.94901245 41.59017944 79.67547607 C41.53427935 84.01954586 40.85504155 86.75630984 38.18359375 90.203125 C34.99244495 92.33055753 34.16726657 92.45753545 30.50366211 92.4777832 C29.08089211 92.49208122 29.08089211 92.49208122 27.62937927 92.50666809 C26.0919381 92.50530098 26.0919381 92.50530098 24.5234375 92.50390625 C23.46379288 92.50819138 22.40414825 92.5124765 21.31239319 92.51689148 C19.06544712 92.52263989 16.81848244 92.5231313 14.5715332 92.51879883 C11.15868596 92.51565958 7.74672309 92.53901994 4.33398438 92.56445312 C2.1471365 92.56672835 -0.03971368 92.56742858 -2.2265625 92.56640625 C-3.23735367 92.575616 -4.24814484 92.58482574 -5.28956604 92.59431458 C-18.07338542 92.51227306 -28.72381776 88.24510467 -38.06640625 79.453125 C-47.60413206 69.29881894 -51.35448657 57.98943238 -51.23608398 44.18823242 C-50.79157531 32.15505394 -45.74092015 21.29826491 -37.375 12.69140625 C-26.38400973 3.01229546 -14.27318474 0.06785767 0 0 Z M-24.19140625 30.515625 C-28.30787727 35.79842947 -30.40430279 41.47311934 -30.1015625 48.19921875 C-28.99349718 55.98603392 -25.0167818 62.68368042 -18.87890625 67.515625 C-13.41488312 70.52641325 -8.89363168 71.45164829 -2.66796875 71.3984375 C-0.86320068 71.39094482 -0.86320068 71.39094482 0.97802734 71.38330078 C2.48961426 71.36509277 4.00120117 71.34688477 5.55859375 71.328125 C10.38484375 71.286875 15.21109375 71.245625 20.18359375 71.203125 C20.18359375 55.033125 20.18359375 38.863125 20.18359375 22.203125 C15.08921875 22.1 9.99484375 21.996875 4.74609375 21.890625 C3.15740479 21.84510498 1.56871582 21.79958496 -0.06811523 21.75268555 C-10.18739339 21.65372106 -16.98741321 23.05333052 -24.19140625 30.515625 Z " fill="#121F48" transform="translate(159.81640625,49.796875)"/>
<path d="M0 0 C3.57491696 3.08742829 4.53414983 5.79838494 4.92938232 10.51629639 C5.01067753 13.04127971 5.02628509 15.55966134 5.0234375 18.0859375 C5.0437263 19.98958921 5.06457708 21.89323501 5.0859375 23.796875 C5.10850987 26.77446516 5.12500358 29.75182044 5.13085938 32.72949219 C5.14042598 35.61956401 5.17424861 38.50859995 5.2109375 41.3984375 C5.20589203 42.2788974 5.20084656 43.1593573 5.19564819 44.0664978 C5.30304915 50.87597919 7.00069921 56.11300908 11.42578125 61.36328125 C17.63549581 66.38737012 23.16956393 68.9425835 31.26171875 68.66015625 C38.0160163 67.88611587 42.92877545 65.19622455 47.75 60.375 C51.18974362 55.48462968 52.85554385 50.99582034 52.90771484 45.05297852 C52.92310806 43.78630089 52.92310806 43.78630089 52.93881226 42.49403381 C52.94611359 41.58979172 52.95341492 40.68554962 52.9609375 39.75390625 C52.98899916 37.83006952 53.01766357 35.9062415 53.046875 33.98242188 C53.08816375 30.95630067 53.12506221 27.93034345 53.15136719 24.90405273 C53.1789854 21.97866483 53.22484673 19.05401095 53.2734375 16.12890625 C53.27669037 15.22668839 53.27994324 14.32447052 53.28329468 13.39491272 C53.37750888 8.57455331 53.61931865 5.2862113 56.75 1.375 C59.9445433 -1.36317998 61.48679083 -1.625 65.75 -1.625 C68.64522006 -1.34481741 69.93864791 -0.48944099 72.33959961 1.23583984 C75.86566302 5.82797226 75.45130222 9.77135618 75.37890625 15.4140625 C75.38131821 16.4907016 75.38373016 17.5673407 75.38621521 18.67660522 C75.38523659 20.95452556 75.37183961 23.23246963 75.34692383 25.51025391 C75.31282245 28.96731183 75.32621456 32.42178227 75.34570312 35.87890625 C75.33879819 38.09896907 75.32911997 40.31902534 75.31640625 42.5390625 C75.32384605 44.07090683 75.32384605 44.07090683 75.33143616 45.63369751 C75.1330948 57.95861032 70.47003934 67.9023239 62.375 77.0625 C49.70401987 88.22503011 38.67210223 91.19753154 22.0703125 90.54541016 C10.75714769 89.7145401 1.06890993 83.23213418 -6.5625 75.125 C-14.99433873 64.39579072 -17.55184283 52.53275444 -17.5859375 39.203125 C-17.5925943 38.27707458 -17.5992511 37.35102417 -17.60610962 36.39691162 C-17.61615468 34.45749884 -17.62092919 32.51805205 -17.62060547 30.57861328 C-17.62501005 27.61824309 -17.66150098 24.65932924 -17.69921875 21.69921875 C-17.70508248 19.80469255 -17.70905484 17.91015934 -17.7109375 16.015625 C-17.72530853 15.13739075 -17.73967957 14.25915649 -17.75448608 13.35430908 C-17.71267507 7.72699763 -16.89708513 4.71193593 -13.25 0.375 C-8.91935994 -2.80080271 -4.64249999 -2.32124999 0 0 Z " fill="#121F48" transform="translate(239.25,51.625)"/>
<path d="M0 0 C2.99452434 2.24589325 3.81623122 3.44869367 5 7 C5.08910819 8.40478561 5.12510108 9.81333862 5.12597656 11.22094727 C5.13168671 12.49356163 5.13168671 12.49356163 5.13751221 13.79188538 C5.13853943 14.70747726 5.13956665 15.62306915 5.140625 16.56640625 C5.15896475 18.51628761 5.17853612 20.46615771 5.19921875 22.41601562 C5.22807972 25.48139312 5.24999737 28.54605048 5.25048828 31.61157227 C5.25384887 34.57632906 5.28856314 37.53943848 5.328125 40.50390625 C5.3210553 41.40532852 5.3139856 42.30675079 5.30670166 43.23548889 C5.43445662 50.01006791 7.18690505 55.36085589 11 61 C17.27089249 66.97399823 23.41935166 69.56188056 32.0859375 69.375 C39.53532824 68.41636527 45.18346914 64.58781711 49.84375 58.84375 C53.28923539 53.34959763 53.29388109 48.40758759 53.30859375 42.09765625 C53.33374939 40.13606468 53.35914747 38.17447621 53.38476562 36.21289062 C53.41351085 33.13420383 53.43754222 30.05557068 53.45629883 26.97680664 C53.47799058 23.9959792 53.51742632 21.01576912 53.55859375 18.03515625 C53.55870956 17.11936295 53.55882538 16.20356964 53.5589447 15.26002502 C53.63855346 10.10156374 54.10684007 6.45528281 57 2 C59.71083547 -0.1979747 61.48957172 -0.92397877 64.9375 -1.4375 C68.89346816 -0.87236169 70.95372709 0.43836141 74 3 C76.54524585 7.56074859 76.30619469 12.17403632 76.30078125 17.25390625 C76.30506638 18.15060532 76.3093515 19.04730438 76.31376648 19.97117615 C76.31950018 21.86822671 76.32001712 23.76529926 76.31567383 25.66235352 C76.31253715 28.52855285 76.33590351 31.39369552 76.36132812 34.25976562 C76.42078889 51.27936716 74.2972749 66.12163271 62.15625 78.96484375 C52.0385179 88.51436988 40.58731863 91.63177652 26.93798828 91.47045898 C20.35721057 91.22372917 14.86550643 90.11287507 9 87 C8.06800781 86.51402344 7.13601562 86.02804688 6.17578125 85.52734375 C-4.87381727 79.15083601 -11.93268028 69.37327223 -15.54483032 57.15745544 C-16.05513005 54.73868947 -16.15608832 52.50737864 -16.19287109 50.03540039 C-16.20893402 49.05080338 -16.22499695 48.06620636 -16.24154663 47.05177307 C-16.2861403 42.57138929 -16.32702613 38.09114937 -16.35009766 33.6105957 C-16.36668735 31.24688899 -16.3940165 28.88323305 -16.43212891 26.51977539 C-16.48683193 23.10797161 -16.50875847 19.69733918 -16.5234375 16.28515625 C-16.54610687 15.22982193 -16.56877625 14.17448761 -16.59213257 13.08717346 C-16.57094834 5.74526648 -16.57094834 5.74526648 -13.59228516 1.85717773 C-8.88491916 -1.51529666 -5.56424325 -1.29700332 0 0 Z " fill="#121F48" transform="translate(16,51)"/>
</svg>
